<svg xmlns="http://www.w3.org/2000/svg" viewBox="0 0 640.13 236.02"><title>raddle</title><path d="M116.47 52.48q-3.53 90.44-9.51 180.76c-.21 3.21 4.79 3.2 5 0q6-90.31 9.51-180.76c.13-3.22-4.87-3.21-5 0z" fill="#1d1d1b"/><path d="M3.59 111.94c42.43-32 86.29-63.89 134.36-87 16-7.68 32.8-14.37 50.29-17.8 18.77-3.68 48.27-5.78 60.27 12.61 16.91 25.91-.76 55.43-19.68 74.14-10.47 10.35-22.39 18.5-34.86 26.22s-25 14.85-38.51 20.29a143.78 143.78 0 0 1-20.68 6.7c-2.48.58-5.65 1.4-7.45-1.22-1-1.38.27-4.19 1.05-5.39 2.49-3.82 7.22-4.57 11.21-3 7.34 2.82 10.23 10.93 11.64 18 1.52 7.7 2.36 15.57 3.48 23.34 1.73 12 2.82 24.33 6.35 35.94 2.38 7.82 6.36 17.2 14.69 20.2 9.14 3.3 17.38-3.07 23-9.7 6.6-7.81 12.08-17 17.24-25.78 9.43-16.1 16.6-35.29 34.95-43.25a55.68 55.68 0 0 1 17.75-4.09c3.18-.26 3.22-5.25 0-5-15.4 1.18-29.08 7.23-38.87 19.42a86.49 86.49 0 0 0-18.73 50.08c-.24 7.32 1.43 14.35 8.71 17.51 6.85 3 14.56 1.23 21.15-1.61 13.9-6 21.07-18 23.64-32.42 3.26-18.3 6.88-36.54 9.44-55 .43-3.11-4.25-4.54-4.82-1.33-3 16.91-6.18 33.83-7.77 50.94-1.07 11.6-3.71 29.37 6.88 37.74 11.79 9.32 25.32-2 31.61-12 8.94-14.24 13.54-30.69 23.08-44.6 3.46-5 6.92-10.17 11.49-14.31 6.07-5.49 13.68-8.23 21.57-9.93 3.15-.68 1.81-5.47-1.33-4.82-20.6 4.27-35.52 21.06-42.89 40.08-5.4 14-11.67 46.5 10.71 48.93 10.92 1.19 18.82-7.16 24.38-15.52 7.19-10.82 9.48-22.87 11.44-35.49q4.86-31.22 9.65-62.46 5.41-35.13 10.85-70.26l-4.82-1.33c-6.27 43.57-12.71 87.12-19 130.69q-.91 6.25-1.81 12.49c-.86 6-2.83 11.73-3.58 17.71-1 8.09 1.8 19.21 9.79 23 8.37 4 13.89-5.58 17.52-11.6 5-8.27 8.16-16.65 11.22-25.81 3.24-9.68 6.95-19.58 12.63-28.11a40.78 40.78 0 0 1 30.3-18.39v-5c-18.5 2.07-33.66 16.09-41 32.75-3.68 8.37-5.77 18.22-6.83 27.25-1.11 9.49 1.27 18.64 9 24.76s17.4 6.63 25.58 1.11c9-6.06 12.58-16.47 14.32-26.7 4.08-23.95 6.55-48.27 9.83-72.34 3.69-27.05 7.41-54.11 11-81.18.42-3.18-4.58-3.14-5 0-4.4 32.81-9.54 65.52-13.86 98.34-2 15.14-4.88 30.88-4.51 46.19a49.29 49.29 0 0 0 5.25 21.48c3.53 6.9 8.74 15.13 16.5 17.73 6.42 2.14 12.86-1.67 17.85-5.42 6.37-4.78 11.32-10.68 16.18-16.92a547.82 547.82 0 0 0 35.13-50.3C540.49 130 558.14 93.41 565 55.61c.9-5 1.59-11-1.58-15.33-3.69-5-10.4-4.55-15.51-2.26-8.49 3.81-11.87 10.61-15.32 18.79-4.22 10-8.43 20-12.51 30.08-8.39 20.67-16.29 41.58-22.65 63-5.94 20-12 41.5-12.88 62.43-.31 7.16.91 15 6.79 19.82 6.29 5.13 14.84 4.08 21.89 1.25 8.9-3.57 16.83-9.64 24.52-15.26 7.43-5.43 14.67-11.11 21.89-16.82 11-8.67 22.37-17.64 31-28.71 5.08-6.48 11-17.07 2.31-23.31-5.22-3.74-13-4.06-18.7-1.41-6.09 2.81-10.14 8.39-14.11 13.56-10.54 13.71-16.5 32.48-15 49.87.63 7.07 2.83 14.38 8.34 19.2 6 5.23 14.38 6.3 22 4.75 8.81-1.81 15.89-7.58 22.18-13.7 7.77-7.55 15.2-15.48 22.31-23.65q10.28-11.83 19.59-24.44c1.92-2.58-2.42-5.08-4.32-2.52a404.39 404.39 0 0 1-37 43c-6.14 6.21-12.6 13-21.15 15.75-8 2.55-17.86 1.43-23-6-8.26-12-3.55-31.66 1.19-44.08 2.84-7.44 7.42-13.89 12.5-20 4.54-5.42 10.14-9.78 17.63-8.16 13.24 2.87 3.81 15.32-1.52 21.32-7.93 8.92-17.32 16.55-26.64 24-12.94 10.27-26 21.32-40.52 29.36-7 3.86-17.74 7.91-23.89.53-5.31-6.37-3.4-16.55-2.31-24 5.38-36.79 17.45-72.2 31.15-106.63 3.44-8.66 7-17.27 10.59-25.86 3.26-7.78 5.85-19.06 12.63-24.53 5.32-4.29 15.09-7.26 15.72 2.23.33 5-1.3 10.25-2.48 15.07-8.36 34.16-23.24 66.38-41.52 96.32a527.58 527.58 0 0 1-29.82 43.53c-4.63 6.11-9.16 12.48-14.67 17.84-4.16 4-10.63 10.27-16.91 10.22-7.92-.06-13.8-11-16.7-17.18a46 46 0 0 1-4-20.51c.17-12.86 2.25-25.84 3.89-38.57 3.72-28.87 8.09-57.66 12.18-86.48q1.18-8.33 2.31-16.67h-5c-5.41 41.06-11.15 82.08-16.66 123.13-1.34 9.95-2.32 20-4.1 29.9-1.86 10.35-6 21.87-17 25.42-9.83 3.17-19.86-4.94-21.87-14.42-2-9.28 1.72-20.17 4.2-29.09 4.77-17.18 20.34-33.53 38.52-35.57 3.16-.35 3.2-5.35 0-5-19.3 2.14-32.25 13.9-40.25 31.07a231.24 231.24 0 0 0-9.14 24 95.55 95.55 0 0 1-11.73 23.94c-2.9 4.26-6.37 8.2-10.93 3.47s-5.2-12.21-4.14-18.17c1.63-9.14 3.6-18.11 4.93-27.32q4.59-31.64 9.23-63.28 4.92-33.7 9.81-67.41c.45-3.13-4.32-4.52-4.82-1.33q-8.73 56-17.3 112.08c-2.92 18.92-3.69 40-15 56.15-2.9 4.15-6.67 8.69-11.4 10.81-5.64 2.53-13.71 1.05-16.38-5-3.73-8.42-2.35-19-.2-27.57 5.26-21 20.13-41 42.26-45.63l-1.33-4.82c-10.71 2.3-20.32 6.78-27.61 15.14-7.9 9.07-14 19.69-19 30.59-3.12 6.85-6 13.81-9.64 20.4s-8.17 14.41-15.75 17c-18.72 6.28-17.54-19.72-16.73-30.71 1.34-18.19 4.77-36.15 8-54.09l-4.82-1.33c-1.92 13.77-4.42 27.45-6.92 41.13-2.15 11.75-2.84 25-11.14 34.3-7.2 8.08-33.55 20.6-35 1.37-1.25-16.21 5.65-33.82 14.63-47s22.11-20.25 37.89-21.46v-5c-11.23.91-22 4.07-30.82 11.27-7.72 6.28-13.12 14.79-17.88 23.4-5.18 9.38-10.41 18.58-16.15 27.64-5 7.95-15 25.6-26.88 20.59-9.95-4.19-12.35-20.05-14-29.33-2.74-15.71-3.81-31.79-7.09-47.4-2.25-10.68-10.88-25.09-24.05-21.17a13.7 13.7 0 0 0-9.58 10.61c-.7 4.69 1.8 9.46 6.78 10.1 6.7.86 15.15-3 21.35-5.19a185.81 185.81 0 0 0 20.4-8.54 321.27 321.27 0 0 0 40.06-23.68c21.91-15.12 46.63-38.61 49.27-66.73 1.18-12.6-2-27.33-11.18-36.57-8.21-8.28-20.41-11.1-31.67-11.88-19.37-1.35-38.65 3.12-56.72 9.79-21.47 7.92-41.82 18.74-61.45 30.41-26.25 15.6-51.4 33-76.05 51q-11 8-21.78 16.17c-2.54 1.91 0 6.26 2.52 4.32z" fill="#1d1d1b"/></svg>
